<?xml version="1.0" encoding="UTF-8"?><svg id="Layer_1" xmlns="http://www.w3.org/2000/svg" viewBox="0 0 179.57 184.01"><path d="M179.3,60.18c-.57-5.09-2.2-10.13-4.87-14.65-2.65-4.53-6.41-8.44-10.71-11.53-4.31-3.1-9.17-5.39-14.18-7.03-3.31-1.06-6.68-1.85-10.08-2.41-1.42-.23-2.38.79-2.53,2.22,0,.07-.02.15-.02.22-.17,1.43.55,2.67,1.97,2.9,3.02.5,5.99,1.18,8.88,2.09,4.56,1.46,8.9,3.49,12.69,6.18,3.81,2.67,6.98,6.05,9.39,9.9,4.86,7.71,5.83,17.3,3.98,26.36-.9,4.47-2.39,8.85-4.3,13.08-1.72-3.14-3.63-6.19-5.69-9.12-6.78-9.51-15.07-17.94-24.29-25.3-1.98-6.41-4.47-12.69-7.6-18.7-.03-.05-.06-.1-.09-.16-.05-.08-.36.05-.71.28-.21.14-.42.27-.64.39-.33.18-.67.34-1.01.48-.57.23-1.03.42-1,.48.02.04.04.07.05.11,2.05,4.15,3.79,8.43,5.28,12.78-4.73-3.41-9.63-6.58-14.71-9.46-5.38-3.03-10.98-5.74-16.72-8.15,2.73-.57,5.48-1.08,8.25-1.46,1.43-.19,1.47-.79.51-1.86-.2-.22-.38-.46-.53-.69-.77-1.21-1.79-2.33-3.21-2.13-4.98.7-8.95,1.63-13.39,2.92-10.49-3.68-21.44-6.21-32.67-7.12-3.64-.28-7.32-.37-11-.24,2.39-2.83,5-5.46,7.86-7.84,3.75-3.1,7.93-5.72,12.48-7.54,4.51-1.82,9.43-2.79,14.26-2.76,4.94.04,9.75,1.08,14.23,2.96,4.48,1.88,8.57,4.56,12.22,7.7,1.27,1.1,2.49,2.25,3.65,3.45,1.01,1.03,2.28,1.38,2.98.84.71-.53.56-1.73-.46-2.75-1.31-1.31-2.69-2.57-4.13-3.76-3.93-3.23-8.35-5.99-13.18-7.9C95.43,1.01,90.16-.03,84.97,0c-5.29.04-10.46,1.15-15.22,3.15-4.77,1.99-9.1,4.8-12.94,8.07-3.34,2.86-6.29,6.05-8.95,9.45-5.87.35-11.71,1.28-17.39,3.03-5,1.56-9.85,3.77-14.18,6.81-4.33,3.02-8.09,6.88-10.85,11.35-2.78,4.46-4.45,9.52-5.1,14.62-.66,5.12-.31,10.27.71,15.23.68,3.23,1.64,6.38,2.81,9.44.52,1.34,1.91,1.7,3.22,1.11.13-.06.27-.11.4-.17,1.33-.53,2.03-1.78,1.51-3.13-1.04-2.72-1.9-5.48-2.51-8.3-.96-4.5-1.29-9.1-.74-13.57.53-4.49,2.01-8.8,4.28-12.71,4.57-7.88,12.79-13.48,21.93-16.47,4.07-1.35,8.31-2.24,12.63-2.8-2.11,3.12-4,6.36-5.71,9.67-4.91,9.72-8.29,20.06-10.4,30.65-4.46,4.48-8.61,9.31-12.33,14.68-.1.14-.19.28-.28.42-.15.23.38.73,1.13,1.22.48.32.93.64,1.34.9.07.04.14.08.2.13.11.07.24.07.29,0,.03-.04.05-.08.08-.13,2.59-3.55,5.39-6.87,8.35-10.04-.89,6.2-1.4,12.45-1.47,18.69-.05,4.96.15,9.94.61,14.9-1.17-1.3-2.32-2.6-3.42-3.95-.91-1.11-2.01-.91-2.85.26-.09.13-.19.26-.29.39-.9,1.12-1.29,2.52-.37,3.63,2.63,3.15,5.27,5.9,8.09,8.59,1.83,11.42,5.14,22.64,10.34,33.19,1.23,2.48,2.59,4.91,4.05,7.28-3.23-.55-6.42-1.3-9.52-2.31-4.68-1.55-9.16-3.7-13.07-6.54-3.91-2.82-7.25-6.4-9.63-10.41-2.43-4.1-3.89-8.59-4.43-13.24-.53-4.64-.14-9.37.88-13.96.31-1.38.68-2.75,1.09-4.1.43-1.37.49-2.59.09-2.77-.24-.11-.48-.22-.71-.35-.26-.14-.5-.29-.74-.45-.4-.27-1.09.6-1.5,1.97-.5,1.68-.93,3.39-1.28,5.12-.96,4.87-1.26,9.9-.58,14.85.64,4.94,2.33,9.82,4.95,14.09,2.68,4.36,6.27,8.07,10.47,11.01,4.19,2.94,8.9,5.12,13.79,6.65,3.76,1.17,7.61,1.98,11.49,2.5,3.53,5.37,7.7,10.38,12.71,14.7,3.92,3.35,8.36,6.26,13.27,8.32,4.91,2.08,10.29,3.25,15.73,3.3,5.44.06,10.86-1.09,15.82-3.1,4.97-2.01,9.47-4.88,13.47-8.21,2.6-2.19,4.98-4.57,7.18-7.08.95-1.08.57-2.39-.62-3.2-.11-.07-.21-.14-.32-.22-1.17-.84-2.67-.82-3.61.26-1.95,2.23-4.04,4.32-6.3,6.24-3.61,3.04-7.61,5.61-11.95,7.4-4.33,1.8-8.99,2.74-13.67,2.81-9.43.17-18.61-3.83-25.9-9.9-3.84-3.17-7.25-6.84-10.26-10.82,4.44.29,8.91.27,13.33-.01,10.95-.78,21.7-3.04,32.07-6.41,6.59,1.66,13.3,2.87,20.11,3.46,1.43.13,2.45-.34,2.36-1.03-.05-.41-.09-.82-.09-1.24,0-.2,0-.4.02-.6.02-.33-1.1-.7-2.53-.86-4.34-.49-8.63-1.24-12.88-2.19,6.45-2.46,12.73-5.31,18.76-8.55,4.67-2.52,9.22-5.27,13.61-8.24-.78,2.27-1.62,4.52-2.55,6.73-.56,1.33,0,1.85,1.41,1.52.48-.11.98-.2,1.48-.27,1.42-.19,3.07-1.26,3.61-2.59,1.63-3.96,2.59-7.12,3.47-10.77,9.32-7.17,17.73-15.42,24.63-24.9,1.84-2.56,3.56-5.22,5.14-7.96,1.5,3.59,2.69,7.29,3.47,11.08.93,4.65,1.22,9.42.6,14.08-.61,4.64-2.19,9.19-4.64,13.17-2.5,4.05-5.85,7.51-9.8,10.28-3.95,2.76-8.43,4.8-13.1,6.26-2,.61-4.03,1.11-6.08,1.52-1.41.28-2.48.86-2.43,1.36.03.3.06.61.06.92,0,.23-.01.46-.03.69-.03.37,1.08.48,2.48.18,2.36-.5,4.7-1.12,6.99-1.88,4.89-1.63,9.6-3.91,13.76-6.94,4.17-3,7.75-6.84,10.31-11.14,2.61-4.4,4.18-9.22,4.76-14.16.58-4.94.19-9.92-.86-14.73-.97-4.4-2.49-8.64-4.36-12.72,2.88-5.34,5.16-11,6.5-16.98,1.08-4.91,1.5-10.03.91-15.13ZM40.45,35.54c1.9-3.71,4.08-7.29,6.53-10.69,4.65-.45,9.37-.53,14.07-.27,9.4.54,18.7,2.28,27.76,4.92-.21.07-.41.13-.63.2-9.76,3.15-19.18,7.24-28.02,12.24-10.79,6.12-20.58,12.91-29.17,21.03,1.94-9.48,5.01-18.73,9.45-27.42ZM61.99,156.55c-4.85.32-9.74.28-14.57-.18-2.2-3.1-4.19-6.34-5.96-9.7-4.63-8.82-7.89-18.26-10.02-27.98.9.79,1.79,1.58,2.75,2.39,7.74,6.49,16.16,12.23,25.12,17.04,9.95,5.33,20.54,9.7,31.52,12.77-9.33,2.99-18.99,4.99-28.84,5.65ZM118.68,138.68c-6.7,3.75-13.72,7.06-20.97,9.81-12.59-3.18-24.7-8.19-35.91-14.49-11.73-6.61-22.67-14.67-31.95-24.12-.91-6.14-1.43-12.35-1.52-18.54-.05-7.09.41-14.23,1.43-21.28,9.51-9.54,20.65-17.37,32.91-24,11-5.92,22.63-10.74,34.72-13.8,7.03,2.54,13.86,5.62,20.42,9.12,5.9,3.21,11.61,6.8,17.05,10.73,3.89,12.69,5.6,26.01,5.49,39.22-.13,12.34-1.76,24.74-5.28,36.57-5.22,3.92-10.69,7.53-16.39,10.77ZM162.3,100.15c-5.66,8.19-12.54,15.57-20.24,22.16.12-.56.24-1.1.36-1.69,2.02-9.65,3.02-19.48,2.91-29.29-.15-11.73-1.67-23.52-4.82-34.89,8.3,6.68,15.76,14.27,21.85,22.87,2.3,3.26,4.37,6.68,6.16,10.21-1.8,3.67-3.89,7.22-6.23,10.62ZM116.76,22.82l3.49-.91c1.39-.36,3.33-1.5,4.32-2.53l2.5-2.6c1-1.03,1.82-.71,1.82.73l.04,5.88.04,5.88c0,1.44-1,2.03-2.25,1.32l-5.11-2.91-5.11-2.91c-1.25-.71-1.13-1.58.26-1.95ZM134.43,147.56l-1.02,3.46c-.4,1.38-.43,3.62-.06,5.01l.93,3.48c.37,1.39-.33,1.92-1.56,1.19l-5.06-3-5.05-3.01c-1.24-.74-1.22-1.9.03-2.6l5.13-2.87,5.13-2.88c1.25-.7,1.94-.16,1.54,1.22ZM2.39,94c-1.38-.42-1.45-1.3-.18-1.95l5.23-2.7,5.22-2.7c1.28-.66,2.26-.03,2.19,1.41l-.27,5.87-.27,5.88c-.07,1.44-.9,1.73-1.85.66l-2.4-2.7c-.95-1.08-2.84-2.29-4.22-2.71l-3.45-1.05ZM88.44,130.26c-21.09,0-38.25-17.16-38.25-38.25s17.16-38.25,38.25-38.25,38.25,17.16,38.25,38.25-17.16,38.25-38.25,38.25ZM90.72,107.22c-.14,0-.28.06-.38.16-.11.1-.17.25-.17.4v18.21c0,.17.08.33.21.43.1.08.22.12.34.12.04,0,.08,0,.12-.01,5.82-1.32,11.16-7.55,14.28-16.66.05-.15.04-.31-.04-.44-.07-.14-.2-.23-.35-.27-4.37-1.12-9.08-1.77-14-1.93,0,0-.01,0-.02,0ZM86.14,107.22c-4.92.16-9.63.8-14,1.93-.15.04-.28.14-.35.27-.07.14-.09.3-.04.44,3.12,9.11,8.46,15.33,14.28,16.66.04,0,.08.01.12.01.12,0,.25-.04.34-.12.13-.1.21-.26.21-.43v-18.21c0-.15-.06-.29-.17-.4-.1-.1-.24-.16-.38-.16,0,0-.01,0-.02,0ZM67.83,110.49c-.06,0-.13.01-.19.03-2.19.79-4.18,1.71-5.94,2.72-.14.08-.24.22-.27.38-.03.16.01.32.12.45,3.35,4.07,7.65,7.38,12.44,9.57.07.03.15.05.23.05.17,0,.33-.08.44-.21.16-.2.15-.49,0-.69-2.6-3.2-4.72-7.21-6.3-11.93-.05-.14-.15-.26-.28-.32-.08-.04-.16-.06-.24-.06ZM109.05,110.49c-.08,0-.16.02-.24.05-.13.06-.24.18-.28.32-1.58,4.72-3.7,8.74-6.3,11.94-.16.2-.16.48,0,.69.11.14.27.21.44.21.08,0,.16-.02.23-.05,4.79-2.2,9.09-5.51,12.44-9.57.1-.13.15-.29.12-.45-.03-.16-.13-.3-.27-.38-1.77-1.03-3.77-1.94-5.93-2.73-.06-.02-.12-.03-.19-.03ZM111.94,93.73c-.3,0-.54.24-.55.53-.14,4.25-.69,8.38-1.63,12.27-.07.28.09.56.35.65,2.66.94,5.07,2.05,7.16,3.29.09.05.19.08.28.08.19,0,.37-.09.47-.26,2.98-4.8,4.75-10.33,5.13-15.98,0-.15-.04-.3-.15-.41-.1-.11-.25-.17-.4-.17h-10.66ZM54.28,93.73c-.15,0-.3.06-.4.17-.1.11-.16.26-.15.41.37,5.65,2.15,11.17,5.13,15.97.1.17.28.26.47.26.1,0,.19-.02.28-.08,2.09-1.24,4.5-2.35,7.16-3.29.27-.09.42-.38.35-.65-.94-3.9-1.49-8.02-1.63-12.27,0-.3-.25-.53-.55-.53h-10.66ZM69.51,93.73c-.15,0-.29.06-.4.17s-.16.25-.15.4c.15,3.84.66,7.59,1.52,11.14.03.14.13.27.25.34.09.05.18.08.28.08.05,0,.09,0,.14-.02,4.72-1.23,9.77-1.93,15.03-2.09.3,0,.54-.25.54-.55v-8.93c0-.31-.25-.55-.55-.55h-16.65ZM90.72,93.73c-.31,0-.55.25-.55.55v8.93c0,.3.24.54.54.55,5.26.16,10.31.86,15.03,2.09.05.01.09.02.14.02.1,0,.2-.03.28-.08.13-.08.22-.2.25-.34.86-3.55,1.37-7.3,1.52-11.14,0-.15-.05-.3-.15-.4-.1-.11-.25-.17-.4-.17h-16.65ZM117.55,73.45c-.1,0-.19.03-.28.08-2.09,1.24-4.5,2.35-7.16,3.29-.27.09-.42.37-.35.65.94,3.89,1.49,8.02,1.63,12.27,0,.3.25.53.55.53h10.66c.15,0,.3-.06.4-.17.1-.11.16-.26.15-.41-.37-5.65-2.15-11.17-5.13-15.98-.1-.17-.28-.26-.47-.26ZM105.87,78.14s-.09,0-.14.02c-4.71,1.23-9.77,1.93-15.03,2.09-.3,0-.54.25-.54.55v8.93c0,.31.25.55.55.55h16.65c.15,0,.29-.06.4-.17.1-.11.16-.25.15-.4-.15-3.84-.66-7.59-1.52-11.14-.03-.14-.13-.27-.25-.34-.09-.05-.18-.08-.28-.08ZM71.01,78.14c-.1,0-.2.03-.28.08-.13.08-.22.2-.25.34-.86,3.55-1.37,7.3-1.52,11.14,0,.15.05.3.15.4s.25.17.4.17h16.65c.31,0,.55-.25.55-.55v-8.93c0-.3-.24-.54-.54-.55-5.25-.16-10.31-.86-15.03-2.09-.05-.01-.09-.02-.14-.02ZM59.32,73.45c-.18,0-.37.09-.47.26-2.98,4.8-4.75,10.33-5.13,15.97,0,.15.04.3.15.41.1.11.25.17.4.17h10.66c.3,0,.54-.24.55-.53.14-4.25.69-8.38,1.63-12.27.07-.28-.09-.56-.35-.65-2.66-.94-5.07-2.05-7.16-3.29-.09-.05-.19-.08-.28-.08ZM90.72,57.48c-.12,0-.25.04-.34.12-.13.1-.21.26-.21.43v18.21c0,.15.06.29.17.4.1.1.24.16.38.16,0,0,.01,0,.02,0,4.92-.15,9.64-.8,14-1.93.15-.04.28-.14.35-.27.07-.14.09-.3.04-.44-3.12-9.11-8.46-15.33-14.28-16.66-.04,0-.08-.01-.12-.01ZM86.16,57.48s-.08,0-.12.01c-5.82,1.32-11.16,7.55-14.28,16.66-.05.15-.04.31.04.44.07.14.2.23.35.27,4.37,1.12,9.08,1.77,14,1.93,0,0,.01,0,.02,0,.14,0,.28-.06.38-.16.11-.1.17-.25.17-.4v-18.21c0-.17-.08-.33-.21-.43-.1-.08-.22-.12-.34-.12ZM102.65,60.31c-.17,0-.33.08-.44.21-.16.2-.15.49,0,.69,2.6,3.2,4.72,7.22,6.3,11.94.05.14.15.26.28.32.08.04.16.05.24.05.06,0,.13-.01.19-.03,2.17-.79,4.17-1.7,5.93-2.73.14-.08.24-.22.27-.38.03-.16-.01-.32-.12-.45-3.35-4.07-7.65-7.38-12.44-9.57-.07-.03-.15-.05-.23-.05ZM74.23,60.31c-.08,0-.16.02-.23.05-4.79,2.19-9.09,5.51-12.44,9.57-.1.13-.15.29-.12.45.03.16.13.3.27.38,1.75,1.02,3.75,1.93,5.94,2.72.06.02.12.03.19.03.08,0,.16-.02.24-.06.13-.06.24-.18.28-.32,1.58-4.72,3.7-8.73,6.3-11.93.16-.2.17-.48,0-.69-.11-.14-.27-.21-.44-.21Z" style="fill:#2453a5; stroke-width:0px;"/></svg>