<?xml version="1.0" encoding="UTF-8"?>
<svg id="Layer_1" data-name="Layer 1" xmlns="http://www.w3.org/2000/svg" version="1.1" viewBox="0 0 749.7 184">
  <defs>
    <style>
      .cls-1, .cls-2 {
        isolation: isolate;
      }

      .cls-2 {
        font-family: IRANYekanX-Bold, IRANYekanX;
        font-size: 90px;
        font-weight: 700;
      }

      .cls-2, .cls-3 {
        fill: #fff;
      }

      .cls-3 {
        stroke-width: 0px;
      }
    </style>
  </defs>
  <path class="cls-3" d="M179.3,60.2c-.6-5.1-2.2-10.1-4.9-14.7-2.6-4.5-6.4-8.4-10.7-11.5-4.3-3.1-9.2-5.4-14.2-7-3.3-1.1-6.7-1.9-10.1-2.4-1.4-.2-2.4.8-2.5,2.2,0,0,0,.1,0,.2-.2,1.4.6,2.7,2,2.9,3,.5,6,1.2,8.9,2.1,4.6,1.5,8.9,3.5,12.7,6.2,3.8,2.7,7,6,9.4,9.9,4.9,7.7,5.8,17.3,4,26.4-.9,4.5-2.4,8.8-4.3,13.1-1.7-3.1-3.6-6.2-5.7-9.1-6.8-9.5-15.1-17.9-24.3-25.3-2-6.4-4.5-12.7-7.6-18.7,0,0,0,0,0-.2,0,0-.4,0-.7.3-.2.1-.4.3-.6.4-.3.2-.7.3-1,.5-.6.2-1,.4-1,.5,0,0,0,0,0,.1,2.1,4.2,3.8,8.4,5.3,12.8-4.7-3.4-9.6-6.6-14.7-9.5-5.4-3-11-5.7-16.7-8.1,2.7-.6,5.5-1.1,8.2-1.5,1.4-.2,1.5-.8.5-1.9-.2-.2-.4-.5-.5-.7-.8-1.2-1.8-2.3-3.2-2.1-5,.7-8.9,1.6-13.4,2.9-10.5-3.7-21.4-6.2-32.7-7.1-3.6-.3-7.3-.4-11-.2,2.4-2.8,5-5.5,7.9-7.8,3.8-3.1,7.9-5.7,12.5-7.5,4.5-1.8,9.4-2.8,14.3-2.8,4.9,0,9.8,1.1,14.2,3,4.5,1.9,8.6,4.6,12.2,7.7,1.3,1.1,2.5,2.2,3.7,3.4,1,1,2.3,1.4,3,.8.7-.5.6-1.7-.5-2.8-1.3-1.3-2.7-2.6-4.1-3.8-3.9-3.2-8.3-6-13.2-7.9-4.8-1.9-10.1-3-15.3-3-5.3,0-10.5,1.1-15.2,3.2-4.8,2-9.1,4.8-12.9,8.1-3.3,2.9-6.3,6.1-9,9.4-5.9.4-11.7,1.3-17.4,3-5,1.6-9.9,3.8-14.2,6.8-4.3,3-8.1,6.9-10.9,11.4-2.8,4.5-4.4,9.5-5.1,14.6-.7,5.1-.3,10.3.7,15.2.7,3.2,1.6,6.4,2.8,9.4.5,1.3,1.9,1.7,3.2,1.1.1,0,.3-.1.4-.2,1.3-.5,2-1.8,1.5-3.1-1-2.7-1.9-5.5-2.5-8.3-1-4.5-1.3-9.1-.7-13.6.5-4.5,2-8.8,4.3-12.7,4.6-7.9,12.8-13.5,21.9-16.5,4.1-1.4,8.3-2.2,12.6-2.8-2.1,3.1-4,6.4-5.7,9.7-4.9,9.7-8.3,20.1-10.4,30.7-4.5,4.5-8.6,9.3-12.3,14.7-.1.1-.2.3-.3.4-.1.2.4.7,1.1,1.2.5.3.9.6,1.3.9,0,0,.1,0,.2.1.1,0,.2,0,.3,0,0,0,0,0,0-.1,2.6-3.6,5.4-6.9,8.4-10-.9,6.2-1.4,12.4-1.5,18.7,0,5,.1,9.9.6,14.9-1.2-1.3-2.3-2.6-3.4-3.9-.9-1.1-2-.9-2.9.3,0,.1-.2.3-.3.4-.9,1.1-1.3,2.5-.4,3.6,2.6,3.2,5.3,5.9,8.1,8.6,1.8,11.4,5.1,22.6,10.3,33.2,1.2,2.5,2.6,4.9,4,7.3-3.2-.6-6.4-1.3-9.5-2.3-4.7-1.6-9.2-3.7-13.1-6.5-3.9-2.8-7.2-6.4-9.6-10.4-2.4-4.1-3.9-8.6-4.4-13.2-.5-4.6-.1-9.4.9-14,.3-1.4.7-2.8,1.1-4.1.4-1.4.5-2.6,0-2.8-.2-.1-.5-.2-.7-.3-.3-.1-.5-.3-.7-.4-.4-.3-1.1.6-1.5,2-.5,1.7-.9,3.4-1.3,5.1-1,4.9-1.3,9.9-.6,14.8.6,4.9,2.3,9.8,5,14.1,2.7,4.4,6.3,8.1,10.5,11,4.2,2.9,8.9,5.1,13.8,6.6,3.8,1.2,7.6,2,11.5,2.5,3.5,5.4,7.7,10.4,12.7,14.7,3.9,3.4,8.4,6.3,13.3,8.3,4.9,2.1,10.3,3.2,15.7,3.3,5.4,0,10.9-1.1,15.8-3.1,5-2,9.5-4.9,13.5-8.2,2.6-2.2,5-4.6,7.2-7.1.9-1.1.6-2.4-.6-3.2-.1,0-.2-.1-.3-.2-1.2-.8-2.7-.8-3.6.3-1.9,2.2-4,4.3-6.3,6.2-3.6,3-7.6,5.6-11.9,7.4-4.3,1.8-9,2.7-13.7,2.8-9.4.2-18.6-3.8-25.9-9.9-3.8-3.2-7.2-6.8-10.3-10.8,4.4.3,8.9.3,13.3,0,10.9-.8,21.7-3,32.1-6.4,6.6,1.7,13.3,2.9,20.1,3.5,1.4.1,2.4-.3,2.4-1,0-.4,0-.8,0-1.2s0-.4,0-.6c0-.3-1.1-.7-2.5-.9-4.3-.5-8.6-1.2-12.9-2.2,6.4-2.5,12.7-5.3,18.8-8.6,4.7-2.5,9.2-5.3,13.6-8.2-.8,2.3-1.6,4.5-2.6,6.7-.6,1.3,0,1.9,1.4,1.5.5-.1,1-.2,1.5-.3,1.4-.2,3.1-1.3,3.6-2.6,1.6-4,2.6-7.1,3.5-10.8,9.3-7.2,17.7-15.4,24.6-24.9,1.8-2.6,3.6-5.2,5.1-8,1.5,3.6,2.7,7.3,3.5,11.1.9,4.7,1.2,9.4.6,14.1-.6,4.6-2.2,9.2-4.6,13.2-2.5,4.1-5.9,7.5-9.8,10.3-3.9,2.8-8.4,4.8-13.1,6.3-2,.6-4,1.1-6.1,1.5-1.4.3-2.5.9-2.4,1.4,0,.3,0,.6,0,.9s0,.5,0,.7c0,.4,1.1.5,2.5.2,2.4-.5,4.7-1.1,7-1.9,4.9-1.6,9.6-3.9,13.8-6.9,4.2-3,7.8-6.8,10.3-11.1,2.6-4.4,4.2-9.2,4.8-14.2s.2-9.9-.9-14.7c-1-4.4-2.5-8.6-4.4-12.7,2.9-5.3,5.2-11,6.5-17,1.1-4.9,1.5-10,.9-15.1h0ZM40.5,35.5c1.9-3.7,4.1-7.3,6.5-10.7,4.7-.5,9.4-.5,14.1-.3,9.4.5,18.7,2.3,27.8,4.9-.2,0-.4.1-.6.2-9.8,3.1-19.2,7.2-28,12.2-10.8,6.1-20.6,12.9-29.2,21,1.9-9.5,5-18.7,9.4-27.4h0ZM62,156.6c-4.8.3-9.7.3-14.6-.2-2.2-3.1-4.2-6.3-6-9.7-4.6-8.8-7.9-18.3-10-28,.9.8,1.8,1.6,2.8,2.4,7.7,6.5,16.2,12.2,25.1,17,9.9,5.3,20.5,9.7,31.5,12.8-9.3,3-19,5-28.8,5.6h0ZM118.7,138.7c-6.7,3.8-13.7,7.1-21,9.8-12.6-3.2-24.7-8.2-35.9-14.5-11.7-6.6-22.7-14.7-32-24.1-.9-6.1-1.4-12.3-1.5-18.5,0-7.1.4-14.2,1.4-21.3,9.5-9.5,20.6-17.4,32.9-24,11-5.9,22.6-10.7,34.7-13.8,7,2.5,13.9,5.6,20.4,9.1,5.9,3.2,11.6,6.8,17.1,10.7,3.9,12.7,5.6,26,5.5,39.2-.1,12.3-1.8,24.7-5.3,36.6-5.2,3.9-10.7,7.5-16.4,10.8h0ZM162.3,100.2c-5.7,8.2-12.5,15.6-20.2,22.2.1-.6.2-1.1.4-1.7,2-9.7,3-19.5,2.9-29.3-.1-11.7-1.7-23.5-4.8-34.9,8.3,6.7,15.8,14.3,21.9,22.9,2.3,3.3,4.4,6.7,6.2,10.2-1.8,3.7-3.9,7.2-6.2,10.6h0ZM116.8,22.8l3.5-.9c1.4-.4,3.3-1.5,4.3-2.5l2.5-2.6c1-1,1.8-.7,1.8.7v5.9s0,5.9,0,5.9c0,1.4-1,2-2.2,1.3l-5.1-2.9-5.1-2.9c-1.2-.7-1.1-1.6.3-2h0ZM134.4,147.6l-1,3.5c-.4,1.4-.4,3.6,0,5l.9,3.5c.4,1.4-.3,1.9-1.6,1.2l-5.1-3-5.1-3c-1.2-.7-1.2-1.9,0-2.6l5.1-2.9,5.1-2.9c1.2-.7,1.9-.2,1.5,1.2h0ZM2.4,94c-1.4-.4-1.5-1.3-.2-1.9l5.2-2.7,5.2-2.7c1.3-.7,2.3,0,2.2,1.4l-.3,5.9-.3,5.9c0,1.4-.9,1.7-1.9.7l-2.4-2.7c-.9-1.1-2.8-2.3-4.2-2.7l-3.5-1.1h0ZM88.4,130.3c-21.1,0-38.2-17.2-38.2-38.2s17.2-38.2,38.2-38.2,38.2,17.2,38.2,38.2-17.2,38.2-38.2,38.2ZM90.7,107.2c-.1,0-.3,0-.4.2-.1,0-.2.2-.2.4v18.2c0,.2,0,.3.2.4,0,0,.2.1.3.1s0,0,.1,0c5.8-1.3,11.2-7.6,14.3-16.7,0-.2,0-.3,0-.4,0-.1-.2-.2-.3-.3-4.4-1.1-9.1-1.8-14-1.9h0,0ZM86.1,107.2c-4.9.2-9.6.8-14,1.9-.2,0-.3.1-.3.3,0,.1,0,.3,0,.4,3.1,9.1,8.5,15.3,14.3,16.7,0,0,0,0,.1,0,.1,0,.2,0,.3-.1.1,0,.2-.3.2-.4v-18.2c0-.2,0-.3-.2-.4s-.2-.2-.4-.2h0,0ZM67.8,110.5c0,0-.1,0-.2,0-2.2.8-4.2,1.7-5.9,2.7-.1,0-.2.2-.3.4,0,.2,0,.3.1.4,3.4,4.1,7.6,7.4,12.4,9.6,0,0,.2,0,.2,0,.2,0,.3,0,.4-.2.2-.2.2-.5,0-.7-2.6-3.2-4.7-7.2-6.3-11.9,0-.1-.2-.3-.3-.3,0,0-.2,0-.2,0h0ZM109.1,110.5c0,0-.2,0-.2,0-.1,0-.2.2-.3.3-1.6,4.7-3.7,8.7-6.3,11.9-.2.2-.2.5,0,.7.1.1.3.2.4.2s.2,0,.2,0c4.8-2.2,9.1-5.5,12.4-9.6,0-.1.2-.3.1-.4,0-.2-.1-.3-.3-.4-1.8-1-3.8-1.9-5.9-2.7,0,0-.1,0-.2,0h0ZM111.9,93.7c-.3,0-.5.2-.6.5-.1,4.2-.7,8.4-1.6,12.3,0,.3,0,.6.3.7,2.7.9,5.1,2.1,7.2,3.3,0,0,.2,0,.3,0,.2,0,.4,0,.5-.3,3-4.8,4.8-10.3,5.1-16,0-.2,0-.3-.2-.4,0-.1-.2-.2-.4-.2,0,0-10.7,0-10.7,0ZM54.3,93.7c-.2,0-.3,0-.4.2,0,.1-.2.3-.2.4.4,5.7,2.2,11.2,5.1,16,0,.2.3.3.5.3s.2,0,.3,0c2.1-1.2,4.5-2.3,7.2-3.3.3,0,.4-.4.3-.7-.9-3.9-1.5-8-1.6-12.3,0-.3-.2-.5-.6-.5h-10.7,0ZM69.5,93.7c-.2,0-.3,0-.4.2s-.2.2-.2.4c.2,3.8.7,7.6,1.5,11.1,0,.1.1.3.2.3,0,0,.2,0,.3,0s0,0,.1,0c4.7-1.2,9.8-1.9,15-2.1.3,0,.5-.2.5-.6v-8.9c0-.3-.2-.6-.6-.6h-16.7ZM90.7,93.7c-.3,0-.6.2-.6.6v8.9c0,.3.2.5.5.6,5.3.2,10.3.9,15,2.1,0,0,0,0,.1,0,0,0,.2,0,.3,0,.1,0,.2-.2.2-.3.9-3.6,1.4-7.3,1.5-11.1,0-.2,0-.3-.2-.4,0-.1-.2-.2-.4-.2h-16.7ZM117.6,73.4c0,0-.2,0-.3,0-2.1,1.2-4.5,2.3-7.2,3.3-.3,0-.4.4-.3.7.9,3.9,1.5,8,1.6,12.3,0,.3.2.5.6.5h10.7c.2,0,.3,0,.4-.2s.2-.3.2-.4c-.4-5.7-2.2-11.2-5.1-16,0-.2-.3-.3-.5-.3ZM105.9,78.1s0,0-.1,0c-4.7,1.2-9.8,1.9-15,2.1-.3,0-.5.2-.5.6v8.9c0,.3.2.6.6.6h16.7c.2,0,.3,0,.4-.2,0-.1.2-.2.2-.4-.2-3.8-.7-7.6-1.5-11.1,0-.1-.1-.3-.2-.3,0,0-.2,0-.3,0h0ZM71,78.1c0,0-.2,0-.3,0-.1,0-.2.2-.2.3-.9,3.6-1.4,7.3-1.5,11.1,0,.2,0,.3.2.4s.2.2.4.2h16.7c.3,0,.6-.2.6-.6v-8.9c0-.3-.2-.5-.5-.6-5.2-.2-10.3-.9-15-2.1,0,0,0,0-.1,0h0ZM59.3,73.4c-.2,0-.4,0-.5.3-3,4.8-4.8,10.3-5.1,16,0,.2,0,.3.2.4,0,.1.2.2.4.2h10.7c.3,0,.5-.2.6-.5.1-4.2.7-8.4,1.6-12.3,0-.3,0-.6-.3-.7-2.7-.9-5.1-2.1-7.2-3.3,0,0-.2,0-.3,0h0ZM90.7,57.5c-.1,0-.2,0-.3.1-.1,0-.2.3-.2.4v18.2c0,.2,0,.3.2.4s.2.2.4.2h0c4.9-.2,9.6-.8,14-1.9.2,0,.3-.1.3-.3,0-.1,0-.3,0-.4-3.1-9.1-8.5-15.3-14.3-16.7,0,0,0,0-.1,0h0ZM86.2,57.5s0,0-.1,0c-5.8,1.3-11.2,7.6-14.3,16.7,0,.2,0,.3,0,.4,0,.1.2.2.3.3,4.4,1.1,9.1,1.8,14,1.9h0c.1,0,.3,0,.4-.2.1,0,.2-.2.2-.4v-18.2c0-.2,0-.3-.2-.4,0,0-.2-.1-.3-.1h0ZM102.7,60.3c-.2,0-.3,0-.4.2-.2.2-.2.5,0,.7,2.6,3.2,4.7,7.2,6.3,11.9,0,.1.2.3.3.3,0,0,.2,0,.2,0s.1,0,.2,0c2.2-.8,4.2-1.7,5.9-2.7.1,0,.2-.2.3-.4,0-.2,0-.3-.1-.4-3.3-4.1-7.7-7.4-12.4-9.6,0,0-.2,0-.2,0h0ZM74.2,60.3c0,0-.2,0-.2,0-4.8,2.2-9.1,5.5-12.4,9.6,0,.1-.2.3-.1.4,0,.2.1.3.3.4,1.8,1,3.8,1.9,5.9,2.7,0,0,.1,0,.2,0s.2,0,.2,0c.1,0,.2-.2.3-.3,1.6-4.7,3.7-8.7,6.3-11.9.2-.2.2-.5,0-.7-.1-.1-.3-.2-.4-.2h0Z"/>
  <g class="cls-1">
    <text class="cls-2" transform="translate(208.5 123.4)"><tspan x="0" y="0">Nation Scope</tspan></text>
  </g>
</svg>